<svg width="147" height="44" viewBox="0 0 147 44" fill="none" xmlns="http://www.w3.org/2000/svg">
<path d="M19.0093 33.783L15.9931 34.6849L12.6051 30.6509C12.5184 30.5366 12.3521 30.3322 12.1064 30.0377C11.8719 29.7223 11.6012 29.3738 11.2944 28.9924C10.9988 28.5901 10.6929 28.1822 10.3764 27.7686C10.06 27.355 9.77167 26.9768 9.51146 26.634C9.63651 27.0522 9.78081 27.5348 9.94434 28.0818C10.1079 28.6287 10.2738 29.1837 10.4422 29.7467C10.6105 30.3097 10.7612 30.843 10.8942 31.3464C11.0433 31.8451 11.1531 32.2416 11.2236 32.536L12.0841 35.8537L8.41648 36.9503L4.49729 20.3261L7.92366 19.3016L14.5016 27.5866C14.7008 27.8425 14.9682 28.2094 15.3039 28.6873C15.6508 29.1444 16.0041 29.6521 16.3639 30.2104C16.3628 29.5623 16.3739 28.9545 16.3969 28.3868C16.4312 27.7982 16.467 27.3319 16.5043 26.9878L17.4548 16.4518L20.8087 15.449L26.6583 31.496L22.9182 32.6143L21.7922 29.3759C21.6848 29.0751 21.5484 28.6778 21.3833 28.1839C21.2341 27.6852 21.0778 27.1624 20.9143 26.6155C20.746 26.0525 20.58 25.4975 20.4165 24.9506C20.2642 24.3827 20.128 23.8978 20.0077 23.4956C19.98 23.8719 19.9507 24.3012 19.9197 24.7837C19.9 25.2452 19.8698 25.7011 19.8292 26.1513C19.7886 26.6016 19.7488 27.0253 19.7098 27.4225C19.6661 27.8036 19.6328 28.1027 19.6101 28.3198L19.0093 33.783Z" fill="#F0283C"/>
<path d="M39.0754 11.4764C40.3808 11.2417 41.5402 11.2379 42.5534 11.4651C43.5666 11.6923 44.4444 12.1145 45.1865 12.7316C45.9287 13.3488 46.5353 14.1609 47.0064 15.1679C47.4911 16.1555 47.8508 17.302 48.0856 18.6075C48.3174 19.8964 48.3646 21.1077 48.2273 22.2412C48.1035 23.3553 47.7877 24.3503 47.2799 25.2264C46.7721 26.1024 46.0694 26.8429 45.1717 27.4479C44.271 28.0363 43.1597 28.4494 41.8377 28.6872C40.5322 28.9219 39.3676 28.9437 38.3438 28.7525C37.3335 28.5418 36.4588 28.1362 35.7196 27.5356C34.9774 26.9184 34.3655 26.1243 33.8838 25.1533C33.4186 24.1792 33.0672 23.0312 32.8295 21.7093C32.5977 20.4203 32.5422 19.2106 32.663 18.08C32.7974 16.9299 33.1169 15.9086 33.6217 15.016C34.1236 14.1069 34.8233 13.3499 35.721 12.7449C36.6353 12.137 37.7534 11.7142 39.0754 11.4764ZM39.2499 14.4389C38.1758 14.6321 37.4815 15.2773 37.167 16.3744C36.8661 17.4521 36.8746 18.875 37.1926 20.6432C37.3441 21.4859 37.5319 22.2454 37.7558 22.9216C37.9963 23.5949 38.2865 24.1653 38.6265 24.633C38.9801 25.0812 39.4052 25.4057 39.9019 25.6064C40.3986 25.8071 40.9857 25.8465 41.6632 25.7246C42.7373 25.5315 43.4278 24.9126 43.7347 23.868C44.0415 22.8234 44.036 21.417 43.718 19.6488C43.5665 18.806 43.369 18.0398 43.1255 17.35C42.8986 16.6573 42.6068 16.0785 42.2503 15.6138C41.9074 15.1296 41.4875 14.7871 40.9908 14.5865C40.4912 14.3692 39.9109 14.3201 39.2499 14.4389Z" fill="#F0283C"/>
<path d="M62.892 25.5462L59.3765 25.8159L51.719 9.3032L56.0884 8.96795L58.8686 15.5745C59.2817 16.57 59.6485 17.5101 59.969 18.3949C60.2882 19.2629 60.5559 20.0085 60.7721 20.6318C60.8907 19.9828 61.0422 19.2134 61.2265 18.3237C61.4108 17.4339 61.6467 16.4475 61.934 15.3646L63.7221 8.38224L67.9408 8.05856L62.892 25.5462Z" fill="#F0283C"/>
<path d="M71.0962 7.95334L75.2517 7.96269L75.2133 25.0128L71.0578 25.0035L71.0962 7.95334Z" fill="#F0283C"/>
<path d="M79.8214 8.20522L90.6461 9.01124L90.4198 12.0502L83.7391 11.5527L83.468 15.1945L89.0185 15.6078L88.3187 18.561L83.2454 18.1832L82.9256 22.4779L89.9579 23.0016L89.7316 26.0405L78.5553 25.2083L79.8214 8.20522Z" fill="#F0283C"/>
<path d="M96.977 10.1067L107.697 11.8109L107.223 14.7956L100.606 13.7438L99.9935 17.599L105.54 18.4808L104.572 21.3616L99.523 20.5589L98.404 27.5978L94.3 26.9454L96.977 10.1067Z" fill="#F0283C"/>
<path d="M115.241 13.4816L119.29 14.4187L115.445 31.0297L111.396 30.0925L115.241 13.4816Z" fill="#F0283C"/>
<path d="M124.103 32.6449L131.826 25.6978L129.688 16.5276L134.014 17.8848L135.007 22.7102C135.036 22.8425 135.061 23.0173 135.08 23.2346C135.121 23.441 135.167 23.6579 135.219 23.8853C135.387 23.7443 135.538 23.5983 135.674 23.4472C135.825 23.3011 135.961 23.1766 136.081 23.0736L139.685 19.6643L144.01 21.0215L136.985 27.3429L139.362 37.4329L134.989 36.0606L133.805 30.4101C133.765 30.2568 133.725 30.077 133.684 29.8706C133.649 29.6482 133.605 29.4233 133.553 29.1959L132.676 30.0558L128.477 34.0172L124.103 32.6449Z" fill="#F0283C"/>
</svg>
